<svg xmlns="http://www.w3.org/2000/svg" viewBox="0 0 512 512">
  <defs>
    <linearGradient id="gradient" x1="0%" y1="0%" x2="100%" y2="100%">
      <stop offset="0%" stop-color="#00d4ff" />
      <stop offset="100%" stop-color="#ff4df4" />
    </linearGradient>
  </defs>
  <rect width="512" height="512" fill="#0d1117" />
  <path fill="url(#gradient)" d="M256 64C150 64 64 150 64 256s86 192 192 192 192-86 192-192S362 64 256 64zm0 352c-88.4 0-160-71.6-160-160S167.6 96 256 96s160 71.6 160 160-71.6 160-160 160z"/>
  <path fill="url(#gradient)" d="M256 128c-70.7 0-128 57.3-128 128s57.3 128 128 128 128-57.3 128-128-57.3-128-128-128zm0 224c-53 0-96-43-96-96s43-96 96-96 96 43 96 96-43 96-96 96z"/>
  <circle cx="256" cy="256" r="64" fill="url(#gradient)"/>
</svg>